# xmcd
#
# Track frame offsets:
#	150
#	10054
#	24532
#	42125
#	57379
#	70245
#	87004
#	99100
#	116838
#	125672
#	139686
#	153178
#	163753
#	179104
#	192989
#	213809
#
# Disc length: 2994 seconds
#
# Revision: 0
# Processed by: cddbd v1.5.2PL0 Copyright (c) Steve Scherf et al.
# Submitted via: audiograbber 1.83.01
#
DISCID=d60bb010
DTITLE=Various Artist - oh baby baby balla balla
DYEAR=1900
DGENRE=Duitstalig
TTITLE0=Axel Schulz - Balla balla (my baby baby)
TTITLE1=Alpenschreck - Jeder hat 'ne macke
TTITLE2=Gunther Bombe - 10 nackte friseusen
TTITLE3=Mike Fender - Verliebt verlor'n in Amarillo
TTITLE4=Meduim Terzett - Wer hat die kokosnuss geklaut
TTITLE5=Olli's Great Jokers - Uno, dos, ballermann (sha la la la la)
TTITLE6=Manfred Morgan - Zuerst kam die sonne
TTITLE7=Diether Krebs - Santamarghuritanobiledimontepulciano (du kleines fisher
TTITLE7=dorf)
TTITLE8=Mona and Die Falschen 50er - Ich will keine schokolade
TTITLE9=Chris and Christian - Aber dich gibt's nur einmal für mich
TTITLE10=Anders and Anders - Westerwald project 1999
TTITLE11=Freddy Breck - Bianca
TTITLE12=Nina and Mike - Paloma blanca
TTITLE13=Geier Sturzflug - Bruttosozialprodukt
TTITLE14=SNV Malmkvist - SVN Malmkvist hit-mix
TTITLE15=Die 3 Besoffskis - Olé wir fahr'n in p... nach Barcelona
EXTD=
EXTT0=
EXTT1=
EXTT2=
EXTT3=
EXTT4=
EXTT5=
EXTT6=
EXTT7=
EXTT8=
EXTT9=
EXTT10=
EXTT11=
EXTT12=
EXTT13=
EXTT14=
EXTT15=
PLAYORDER=
